<?xml version="1.0" encoding="utf-8"?>
<!-- Svg Vector Icons : http://www.onlinewebfonts.com/icon -->
<!DOCTYPE svg PUBLIC "-//W3C//DTD SVG 1.1//EN" "http://www.w3.org/Graphics/SVG/1.1/DTD/svg11.dtd">
<svg version="1.1" xmlns="http://www.w3.org/2000/svg" xmlns:xlink="http://www.w3.org/1999/xlink" x="0px" y="0px" viewBox="0 0 1000 1000" enable-background="new 0 0 1000 1000" xml:space="preserve">
<metadata> Svg Vector Icons : http://www.onlinewebfonts.com/icon </metadata>
<g><path d="M500,990C229.4,990,10,770.6,10,500C10,229.4,229.4,10,500,10c270.6,0,490,219.4,490,490C990,770.6,770.6,990,500,990z M467.3,357l-28.4-52.8c-86.5,40.3-167.7,136.2-167.7,259.9c0,76.5,47.3,132.1,105.5,132.1c60.9,0,92-47.3,92-90.4c0-50-33.8-89-83.9-89c-14.9,0-29.7,4.1-37.9,11.1C346.9,466.8,394.3,394.6,467.3,357z M726.9,357l-28.4-52.8C612,344.5,529.5,440.4,529.5,564.1c0,76.5,48.7,132.1,106.8,132.1c60.9,0,92-47.3,92-90.4c0-50-33.8-89-85.2-89c-14.9,0-28.4,4.1-36.5,11.1C606.6,466.8,653.9,394.6,726.9,357z"/></g>
</svg>